<?xml version="1.0"?>
<svg xmlns="http://www.w3.org/2000/svg" xmlns:xlink="http://www.w3.org/1999/xlink" version="1.1" id="Capa_1" x="0px" y="0px" viewBox="0 0 512 512" style="enable-background:new 0 0 512 512;" xml:space="preserve" width="77px" height="77px"><g><g>
	<g>
		<path d="M507.785,146.406L260.318,1.178c-2.662-1.57-5.973-1.57-8.636,0L4.215,146.406C1.604,147.934,0,150.741,0,153.762    c0,3.029,1.604,5.828,4.224,7.364l247.467,144.905c1.331,0.777,2.825,1.169,4.309,1.169c1.493,0,2.978-0.393,4.309-1.169    l247.467-144.905c2.62-1.527,4.224-4.335,4.224-7.364C512,150.741,510.396,147.942,507.785,146.406z M255.991,288.777    L25.404,153.754L255.991,18.432l230.596,135.322L255.991,288.777z" data-original="#000000" class="active-path" data-old_color="#AC6E6E" fill="#383838"/>
	</g>
</g><g>
	<g>
		<path d="M507.785,214.673l-58.231-34.167c-2.662-1.57-5.965-1.562-8.627-0.009L256,288.777L71.074,180.497    c-2.671-1.553-5.973-1.562-8.636,0.009L4.215,214.673C1.604,216.201,0,219.008,0,222.029c0,3.029,1.604,5.828,4.224,7.364    l247.467,144.905c1.331,0.777,2.825,1.169,4.309,1.169c1.493,0,2.978-0.393,4.309-1.169l247.467-144.905    c2.62-1.527,4.224-4.335,4.224-7.364C512,219.008,510.396,216.209,507.785,214.673z M255.991,357.043L25.404,222.02l41.344-24.269    l184.917,108.279c2.662,1.553,5.965,1.553,8.627,0l184.934-108.279l41.353,24.269L255.991,357.043z" data-original="#000000" class="active-path" data-old_color="#AC6E6E" fill="#383838"/>
	</g>
</g><g>
	<g>
		<path d="M507.785,282.94l-58.231-34.167c-2.662-1.57-5.965-1.562-8.627-0.009L256,357.043L71.074,248.764    c-2.671-1.553-5.973-1.562-8.636,0.008L4.215,282.94C1.604,284.467,0,287.275,0,290.295c0,3.029,1.604,5.828,4.224,7.364    l247.467,144.905c1.331,0.777,2.825,1.169,4.309,1.169c1.493,0,2.978-0.393,4.309-1.169L507.776,297.66    c2.62-1.527,4.224-4.335,4.224-7.364C512,287.275,510.396,284.476,507.785,282.94z M255.991,425.31L25.404,290.287l41.344-24.269    l184.917,108.279c2.662,1.553,5.965,1.553,8.627,0l184.934-108.279l41.353,24.269L255.991,425.31z" data-original="#000000" class="active-path" data-old_color="#AC6E6E" fill="#383838"/>
	</g>
</g><g>
	<g>
		<path d="M507.785,351.206l-58.231-34.167c-2.662-1.57-5.965-1.562-8.627-0.009L256,425.31L71.074,317.03    c-2.671-1.553-5.973-1.562-8.636,0.009L4.215,351.206C1.604,352.734,0,355.541,0,358.562c0,3.029,1.604,5.828,4.224,7.364    l247.467,144.905c1.331,0.777,2.825,1.169,4.309,1.169c1.493,0,2.978-0.393,4.309-1.169l247.467-144.905    c2.62-1.527,4.224-4.335,4.224-7.364C512,355.541,510.396,352.742,507.785,351.206z M255.991,493.577L25.404,358.554    l41.344-24.269l184.917,108.279c2.662,1.553,5.965,1.553,8.627,0l184.934-108.279l41.353,24.269L255.991,493.577z" data-original="#000000" class="active-path" data-old_color="#AC6E6E" fill="#383838"/>
	</g>
</g></g> </svg>
