<?xml version="1.0"?>
<svg xmlns="http://www.w3.org/2000/svg" xmlns:xlink="http://www.w3.org/1999/xlink" version="1.1" id="Capa_1" x="0px" y="0px" viewBox="0 0 490 490" style="enable-background:new 0 0 490 490;" xml:space="preserve" width="77px" height="77px"><g><g>
	<path d="M0,444.063h490V45.938H0V444.063z M15.313,61.25h459.375v367.5H15.313V61.25z" data-original="#000000" class="active-path" data-old_color="#9A3D3D" fill="#383838"/>
	<rect x="181.337" y="121.244" width="122.5" height="15.313" data-original="#000000" class="active-path" data-old_color="#9A3D3D" fill="#383838"/>
	<rect x="181.337" y="151.869" width="229.688" height="15.313" data-original="#000000" class="active-path" data-old_color="#9A3D3D" fill="#383838"/>
	<path d="M71.547,179.967h71.508v-71.508H71.547V179.967z M86.86,123.771h40.883v40.883H86.86V123.771z" data-original="#000000" class="active-path" data-old_color="#9A3D3D" fill="#383838"/>
	<rect x="181.337" y="222.271" width="122.5" height="15.312" data-original="#000000" class="active-path" data-old_color="#9A3D3D" fill="#383838"/>
	<rect x="181.337" y="252.896" width="229.688" height="15.312" data-original="#000000" class="active-path" data-old_color="#9A3D3D" fill="#383838"/>
	<path d="M71.547,280.993h71.508v-71.508H71.547V280.993z M86.86,224.798h40.883v40.883H86.86V224.798z" data-original="#000000" class="active-path" data-old_color="#9A3D3D" fill="#383838"/>
	<rect x="181.337" y="323.297" width="122.5" height="15.313" data-original="#000000" class="active-path" data-old_color="#9A3D3D" fill="#383838"/>
	<rect x="181.337" y="353.922" width="229.688" height="15.313" data-original="#000000" class="active-path" data-old_color="#9A3D3D" fill="#383838"/>
	<path d="M71.547,382.02h71.508v-71.508H71.547V382.02z M86.86,325.824h40.883v40.883H86.86V325.824z" data-original="#000000" class="active-path" data-old_color="#9A3D3D" fill="#383838"/>
</g></g> </svg>
